<svg xmlns="http://www.w3.org/2000/svg" viewBox="0 0 128 128">
  <defs>
    <radialGradient id="gobSkin" cx="40%" cy="32%" r="72%"><stop offset="0" stop-color="#b8f28a"/><stop offset=".62" stop-color="#5ca84f"/><stop offset="1" stop-color="#244d2d"/></radialGradient>
    <linearGradient id="gobVest" x1="47" y1="55" x2="79" y2="108" gradientUnits="userSpaceOnUse"><stop offset="0" stop-color="#7a5739"/><stop offset="1" stop-color="#332417"/></linearGradient>
    <filter id="gobSoft" x="-20%" y="-20%" width="140%" height="140%"><feDropShadow dx="0" dy="3" stdDeviation="2" flood-color="#08100b" flood-opacity=".55"/></filter>
  </defs>
  <ellipse cx="64" cy="116" rx="29" ry="7" fill="#08100b" opacity=".34"/>
  <g filter="url(#gobSoft)">
    <path d="M42 45 17 35l23 27zM86 45l25-10-23 27z" fill="url(#gobSkin)"/>
    <path d="M35 35c9-21 49-21 58 0 6 15 0 36-12 45-11 8-23 8-34 0-12-9-18-30-12-45z" fill="url(#gobSkin)"/>
    <path d="M44 58c10 6 29 6 40 0l3 51c-10 8-36 8-46 0z" fill="url(#gobVest)"/>
    <path d="M39 70c-7 6-10 15-9 25 4 2 9 1 12-3l5-24zM89 70c7 6 10 15 9 25-4 2-9 1-12-3l-5-24z" fill="#4a8f44"/>
    <path d="M51 91h11v25H49c-3-8-2-17 2-25zM66 91h11c4 8 5 17 2 25H66z" fill="#26331f"/>
    <path d="M45 114c6 3 12 4 18 2l-2 6H42c0-3 1-6 3-8zM66 116c7 2 13 1 18-2 2 2 3 5 3 8H67z" fill="#08100b"/>
    <path d="M49 44c4-3 8-3 12 0M69 44c4-3 8-3 12 0" fill="none" stroke="#102313" stroke-width="3" stroke-linecap="round"/>
    <path d="M58 57c4 3 10 3 14 0" fill="none" stroke="#4a1f22" stroke-width="3" stroke-linecap="round"/>
    <path d="M48 66c11 5 21 5 32 0" fill="none" stroke="#c0a36a" stroke-width="3" stroke-linecap="round" opacity=".7"/>
  </g>
</svg>
