<svg xmlns="http://www.w3.org/2000/svg" viewBox="0 0 128 128">
  <defs>
    <radialGradient id="kaelSkin" cx="45%" cy="35%" r="70%">
      <stop offset="0" stop-color="#ffd8b4"/>
      <stop offset=".62" stop-color="#d79565"/>
      <stop offset="1" stop-color="#8a5138"/>
    </radialGradient>
    <linearGradient id="kaelCoat" x1="34" y1="38" x2="88" y2="108" gradientUnits="userSpaceOnUse">
      <stop offset="0" stop-color="#386fd4"/>
      <stop offset=".48" stop-color="#1d478f"/>
      <stop offset="1" stop-color="#102341"/>
    </linearGradient>
    <linearGradient id="kaelGold" x1="52" y1="50" x2="74" y2="101" gradientUnits="userSpaceOnUse">
      <stop offset="0" stop-color="#ffe58a"/>
      <stop offset="1" stop-color="#c18722"/>
    </linearGradient>
    <filter id="kaelSoft" x="-20%" y="-20%" width="140%" height="140%">
      <feDropShadow dx="0" dy="3" stdDeviation="2" flood-color="#071018" flood-opacity=".55"/>
    </filter>
  </defs>
  <ellipse cx="64" cy="116" rx="30" ry="7" fill="#071018" opacity=".32"/>
  <g filter="url(#kaelSoft)">
    <path d="M43 48c3-10 11-16 21-16 12 0 20 7 22 18l-7 47c-5 5-25 6-32 0z" fill="url(#kaelCoat)"/>
    <path d="M49 47c3 10 7 19 15 31 7-12 11-21 14-31-7 3-22 3-29 0z" fill="#e7edf8" opacity=".92"/>
    <path d="M56 52h16l5 48c-7 4-19 4-27 0z" fill="url(#kaelGold)"/>
    <path d="M41 57c-7 8-9 21-6 32 3 2 7 2 11-1l4-32zM87 57c8 9 9 22 5 33-4 2-8 2-11-2l-3-32z" fill="#18376e"/>
    <path d="M34 87c2 5 6 8 12 7l-2 10c-7 1-13-2-17-8zM94 87c-2 6-6 9-12 8l2 10c7 1 14-3 17-9z" fill="#cbd8ec"/>
    <path d="M51 92h11v25H49c-2-9-1-18 2-25zM66 92h11c3 7 4 16 2 25H66z" fill="#172238"/>
    <path d="M46 114c5 3 11 4 17 2l-1 6H43c0-3 1-6 3-8zM66 116c7 2 13 1 17-2 2 2 3 5 3 8H67z" fill="#071018"/>
    <path d="M47 27c4-11 31-13 36 0 3 7 1 19-4 26-5 8-23 8-29 0-5-7-7-18-3-26z" fill="url(#kaelSkin)"/>
    <path d="M45 31c6-15 31-19 40-3-5-2-15-2-23 1-7 3-12 5-17 2z" fill="#162963"/>
    <path d="M42 35c11 3 30 1 45-4l-1 9c-14 5-31 6-44 2z" fill="#2348a2"/>
    <path d="M54 42c3-2 7-2 10 0M69 42c3-2 7-2 10 0" fill="none" stroke="#192033" stroke-width="2.2" stroke-linecap="round"/>
    <path d="M60 53c4 2 9 2 13 0" fill="none" stroke="#7c3e2c" stroke-width="2.5" stroke-linecap="round"/>
    <path d="M33 94l16-2 1 5-15 5zM95 94l-16-2-1 5 15 5z" fill="#f2f5ff"/>
    <path d="M39 56c4-11 10-17 18-20" fill="none" stroke="#7aa6ff" stroke-width="2" opacity=".45"/>
  </g>
</svg>
