<svg xmlns="http://www.w3.org/2000/svg" viewBox="0 0 128 128">
  <defs>
    <radialGradient id="nyxSkin" cx="42%" cy="33%" r="72%">
      <stop offset="0" stop-color="#d8a07b"/>
      <stop offset=".68" stop-color="#865038"/>
      <stop offset="1" stop-color="#3d241d"/>
    </radialGradient>
    <linearGradient id="nyxCloak" x1="37" y1="43" x2="86" y2="116" gradientUnits="userSpaceOnUse">
      <stop offset="0" stop-color="#7c66d8"/>
      <stop offset=".48" stop-color="#42318c"/>
      <stop offset="1" stop-color="#16152a"/>
    </linearGradient>
    <linearGradient id="nyxSteel" x1="26" y1="84" x2="102" y2="93" gradientUnits="userSpaceOnUse">
      <stop offset="0" stop-color="#e8f3ff"/>
      <stop offset=".5" stop-color="#7aa7d8"/>
      <stop offset="1" stop-color="#e8f3ff"/>
    </linearGradient>
    <filter id="nyxSoft" x="-20%" y="-20%" width="140%" height="140%">
      <feDropShadow dx="0" dy="3" stdDeviation="2" flood-color="#070812" flood-opacity=".55"/>
    </filter>
  </defs>
  <ellipse cx="64" cy="116" rx="30" ry="7" fill="#070812" opacity=".34"/>
  <g filter="url(#nyxSoft)">
    <path d="M42 50c6-13 39-14 45 0 5 18 7 41 2 61-10 7-40 7-50 0-5-20-2-43 3-61z" fill="url(#nyxCloak)"/>
    <path d="M51 51h25l4 57c-9 5-25 5-34 0z" fill="#2f244f"/>
    <path d="M57 55h14l3 51c-6 4-16 4-22 0z" fill="#8d63d8"/>
    <path d="M37 62c-7 11-9 23-6 34 5 2 11 0 15-5l4-32zM91 62c7 11 9 23 6 34-5 2-11 0-15-5l-4-32z" fill="#19172d"/>
    <path d="M28 86h29v6H28zM71 86h29v6H71z" fill="url(#nyxSteel)" transform="rotate(-8 64 89)"/>
    <path d="M50 92h12v25H47c-2-9-1-18 3-25zM66 92h12c3 7 4 16 2 25H66z" fill="#181726"/>
    <path d="M45 114c6 3 12 4 18 2l-2 6H42c0-3 1-6 3-8zM66 116c7 2 13 1 18-2 2 2 3 5 3 8H67z" fill="#070812"/>
    <path d="M46 31c5-13 32-14 38 0 4 9 1 23-6 30-7 7-22 7-29 0-7-7-9-21-3-30z" fill="url(#nyxSkin)"/>
    <path d="M44 31c5-12 29-15 40-2l2 10c-14-6-28-6-43 0z" fill="#2f235d"/>
    <path d="M41 38c14-7 31-8 47-1l-2 8c-14-5-28-5-43 0z" fill="#5c48c4"/>
    <path d="M54 44c3-2 7-2 10 0M69 44c3-2 7-2 10 0" fill="none" stroke="#11111e" stroke-width="2.2" stroke-linecap="round"/>
    <path d="M59 55c4 2 9 2 13 0" fill="none" stroke="#4f2b23" stroke-width="2.5" stroke-linecap="round"/>
    <path d="M48 58c7 5 13 10 16 22 3-13 7-20 14-27-10 3-20 4-30 5z" fill="#c7b7ff" opacity=".34"/>
    <path d="M34 96l14-3 2 7-13 5zM94 96l-14-3-2 7 13 5z" fill="#b9d9ff"/>
  </g>
</svg>
