<svg xmlns="http://www.w3.org/2000/svg" viewBox="0 0 128 128">
  <defs>
    <radialGradient id="miraSkin" cx="42%" cy="32%" r="72%">
      <stop offset="0" stop-color="#ffd7b2"/>
      <stop offset=".7" stop-color="#be734f"/>
      <stop offset="1" stop-color="#67372c"/>
    </radialGradient>
    <linearGradient id="miraRobe" x1="37" y1="44" x2="83" y2="116" gradientUnits="userSpaceOnUse">
      <stop offset="0" stop-color="#9d2f67"/>
      <stop offset=".44" stop-color="#6e1f59"/>
      <stop offset="1" stop-color="#241530"/>
    </linearGradient>
    <radialGradient id="miraFlame" cx="45%" cy="35%" r="70%">
      <stop offset="0" stop-color="#fff1a3"/>
      <stop offset=".48" stop-color="#ff9851"/>
      <stop offset="1" stop-color="#d64235"/>
    </radialGradient>
    <filter id="miraSoft" x="-20%" y="-20%" width="140%" height="140%">
      <feDropShadow dx="0" dy="3" stdDeviation="2" flood-color="#120712" flood-opacity=".55"/>
    </filter>
  </defs>
  <ellipse cx="64" cy="116" rx="30" ry="7" fill="#120712" opacity=".34"/>
  <g filter="url(#miraSoft)">
    <path d="M41 51c6-14 40-14 46 0 5 19 8 43 4 62-13 7-42 7-55 0-4-19 0-43 5-62z" fill="url(#miraRobe)"/>
    <path d="M52 50c9 7 17 7 26 0l5 58c-11 5-26 5-38 0z" fill="#d65047" opacity=".95"/>
    <path d="M56 54c5 13 9 26 11 47 4-18 6-34 6-49-5 3-12 4-17 2z" fill="#f3bd64" opacity=".9"/>
    <path d="M38 62c-8 12-10 24-6 35 5 1 10-1 13-6l4-31zM89 62c7 12 9 24 6 35-5 1-10-1-13-6l-4-31z" fill="#401d45"/>
    <path d="M30 96c5-2 11-2 17 1l-2 8c-8 0-14-2-19-6zM98 96c-5-2-11-2-17 1l2 8c8 0 14-2 19-6z" fill="url(#miraFlame)"/>
    <path d="M50 92h12v25H47c-2-9-1-18 3-25zM66 92h12c4 7 5 16 3 25H66z" fill="#29122c"/>
    <path d="M45 114c6 3 12 4 18 2l-2 6H42c0-3 1-6 3-8zM66 116c7 2 14 1 19-2 2 2 3 5 3 8H67z" fill="#120712"/>
    <path d="M46 30c4-12 32-15 39 0 4 10 1 23-6 30-7 7-23 7-30 0-7-7-9-20-3-30z" fill="url(#miraSkin)"/>
    <path d="M42 34c2-16 19-24 35-18 10 4 14 14 10 27-5-9-14-12-25-12-8 0-15 1-20 3z" fill="#4a1748"/>
    <path d="M40 39c8-8 19-12 33-12-6 5-16 8-29 9z" fill="#76225f"/>
    <path d="M54 44c3-2 6-2 9 0M70 44c3-2 7-2 10 0" fill="none" stroke="#1b1522" stroke-width="2.2" stroke-linecap="round"/>
    <path d="M59 55c4 2 9 2 13 0" fill="none" stroke="#743323" stroke-width="2.5" stroke-linecap="round"/>
    <path d="M35 96c0-5 2-8 5-12 3 4 4 9 2 14zM91 96c0-5-2-8-5-12-3 4-4 9-2 14z" fill="#fff1a3" opacity=".78"/>
  </g>
</svg>
