<svg xmlns="http://www.w3.org/2000/svg" viewBox="0 0 128 128">
  <defs>
    <radialGradient id="rowanSkin" cx="45%" cy="32%" r="72%">
      <stop offset="0" stop-color="#f0bc8e"/>
      <stop offset=".7" stop-color="#9a5c3b"/>
      <stop offset="1" stop-color="#4b281d"/>
    </radialGradient>
    <linearGradient id="rowanMantle" x1="38" y1="43" x2="84" y2="112" gradientUnits="userSpaceOnUse">
      <stop offset="0" stop-color="#89cfa2"/>
      <stop offset=".48" stop-color="#44745a"/>
      <stop offset="1" stop-color="#1b3027"/>
    </linearGradient>
    <linearGradient id="rowanLinen" x1="54" y1="51" x2="72" y2="105" gradientUnits="userSpaceOnUse">
      <stop offset="0" stop-color="#f7e8bf"/>
      <stop offset="1" stop-color="#b9905b"/>
    </linearGradient>
    <filter id="rowanSoft" x="-20%" y="-20%" width="140%" height="140%">
      <feDropShadow dx="0" dy="3" stdDeviation="2" flood-color="#081410" flood-opacity=".55"/>
    </filter>
  </defs>
  <ellipse cx="64" cy="116" rx="30" ry="7" fill="#081410" opacity=".34"/>
  <g filter="url(#rowanSoft)">
    <path d="M40 50c5-13 43-13 48 0 4 19 4 42-1 59-11 8-35 8-46 0-5-18-5-40-1-59z" fill="url(#rowanMantle)"/>
    <path d="M53 51h22l5 55c-8 5-24 5-32 0z" fill="url(#rowanLinen)"/>
    <path d="M44 55c8 10 16 18 20 31 5-14 11-23 20-32-12 4-29 4-40 1z" fill="#d9d5aa" opacity=".45"/>
    <path d="M37 61c-6 11-8 24-5 36 5 1 10-2 13-6l4-33zM90 61c7 11 9 24 6 36-5 1-10-2-13-6l-4-33z" fill="#243a2e"/>
    <path d="M33 91h14v8H31zM81 91h14l2 8H82z" fill="#d6c08a"/>
    <path d="M51 92h12v25H48c-2-9-1-18 3-25zM66 92h12c3 7 4 16 2 25H66z" fill="#273226"/>
    <path d="M45 114c6 3 12 4 18 2l-2 6H42c0-3 1-6 3-8zM66 116c7 2 13 1 18-2 2 2 3 5 3 8H67z" fill="#081410"/>
    <path d="M46 31c5-13 32-13 38 0 4 9 1 23-6 30-7 7-22 7-29 0-7-7-9-21-3-30z" fill="url(#rowanSkin)"/>
    <path d="M44 31c6-13 28-16 39-4l-1 10c-10-4-21-4-36 1z" fill="#6a3f25"/>
    <path d="M43 37c9-6 23-8 41-4-2 4-5 7-9 9-8-3-18-3-30 0z" fill="#8a5a36"/>
    <path d="M54 44c3-2 7-2 10 0M69 44c3-2 7-2 10 0" fill="none" stroke="#191816" stroke-width="2.2" stroke-linecap="round"/>
    <path d="M58 56c5 2 10 2 15 0" fill="none" stroke="#5a2e22" stroke-width="2.5" stroke-linecap="round"/>
    <path d="M33 76l-9 31 8 2 10-32z" fill="#7a5933"/>
    <path d="M22 104h14v6H22z" fill="#d8c28c"/>
    <path d="M43 56c5-6 12-10 21-12" fill="none" stroke="#b7f0c3" stroke-width="2" opacity=".38"/>
  </g>
</svg>
