<svg xmlns="http://www.w3.org/2000/svg" viewBox="0 0 128 128">
  <defs>
    <radialGradient id="orcSkin" cx="42%" cy="32%" r="75%"><stop offset="0" stop-color="#c9b079"/><stop offset=".62" stop-color="#8e6f45"/><stop offset="1" stop-color="#3f2d20"/></radialGradient>
    <linearGradient id="orcArmor" x1="39" y1="50" x2="88" y2="112" gradientUnits="userSpaceOnUse"><stop offset="0" stop-color="#92623d"/><stop offset=".5" stop-color="#553724"/><stop offset="1" stop-color="#1f1712"/></linearGradient>
    <filter id="orcSoft" x="-20%" y="-20%" width="140%" height="140%"><feDropShadow dx="0" dy="3" stdDeviation="2" flood-color="#120c08" flood-opacity=".6"/></filter>
  </defs>
  <ellipse cx="64" cy="116" rx="33" ry="8" fill="#120c08" opacity=".36"/>
  <g filter="url(#orcSoft)">
    <path d="M38 35c8-23 44-23 52 0 7 17 1 38-12 48-9 7-19 7-28 0-13-10-19-31-12-48z" fill="url(#orcSkin)"/>
    <path d="M41 56c5-12 41-12 47 0 5 17 6 36 2 54-12 8-40 8-52 0-4-18-2-37 3-54z" fill="url(#orcArmor)"/>
    <path d="M35 62c-9 9-12 23-8 35 6 2 12 0 16-6l5-31zM93 62c9 9 12 23 8 35-6 2-12 0-16-6l-5-31z" fill="#765638"/>
    <path d="M50 91h12v26H48c-3-9-2-18 2-26zM66 91h12c4 8 5 17 2 26H66z" fill="#211712"/>
    <path d="M45 114c6 3 12 4 18 2l-2 6H42c0-3 1-6 3-8zM66 116c7 2 14 1 19-2 2 2 3 5 3 8H67z" fill="#0c0806"/>
    <path d="M38 32c8-12 41-13 52 0l-5 9c-12-5-28-5-42 0z" fill="#3b281b"/>
    <path d="M48 46c4-3 9-3 13 0M68 46c4-3 9-3 13 0" fill="none" stroke="#16100d" stroke-width="3" stroke-linecap="round"/>
    <path d="M57 59c5 3 11 3 16 0" fill="none" stroke="#4c211b" stroke-width="3" stroke-linecap="round"/>
    <path d="M43 67c12 6 30 6 43 0" fill="none" stroke="#c79a59" stroke-width="4" opacity=".65"/>
  </g>
</svg>
