<svg xmlns="http://www.w3.org/2000/svg" viewBox="0 0 128 128">
  <defs>
    <radialGradient id="trollSkin" cx="40%" cy="30%" r="78%"><stop offset="0" stop-color="#b7d995"/><stop offset=".62" stop-color="#667d55"/><stop offset="1" stop-color="#2b3729"/></radialGradient>
    <linearGradient id="moss" x1="42" y1="38" x2="90" y2="114" gradientUnits="userSpaceOnUse"><stop offset="0" stop-color="#678c5a"/><stop offset=".52" stop-color="#3d5137"/><stop offset="1" stop-color="#151f18"/></linearGradient>
    <filter id="trollSoft" x="-20%" y="-20%" width="140%" height="140%"><feDropShadow dx="0" dy="3" stdDeviation="2" flood-color="#070d08" flood-opacity=".65"/></filter>
  </defs>
  <ellipse cx="64" cy="116" rx="36" ry="9" fill="#070d08" opacity=".38"/>
  <g filter="url(#trollSoft)">
    <path d="M32 30c9-24 55-25 65 0 8 20 1 42-13 54-12 10-28 10-40 0-14-12-20-34-12-54z" fill="url(#trollSkin)"/>
    <path d="M35 53c8-16 51-16 59 0 8 18 9 39 4 58-14 9-54 9-68 0-5-19-3-40 5-58z" fill="url(#moss)"/>
    <path d="M28 63c-11 10-15 25-10 38 7 3 15 0 19-7l6-34zM100 63c11 10 15 25 10 38-7 3-15 0-19-7l-6-34z" fill="#566f49"/>
    <path d="M49 90h13v27H46c-4-9-3-18 3-27zM66 90h13c6 9 7 18 3 27H66z" fill="#1a2219"/>
    <path d="M42 114c8 4 15 5 22 2l-2 6H38c0-3 1-6 4-8zM66 116c8 3 16 2 22-2 3 2 4 5 4 8H67z" fill="#070d08"/>
    <path d="M41 26c10-10 37-12 49 0-14 0-29 2-48 9z" fill="#32452c"/>
    <path d="M46 45c5-3 10-3 15 0M69 45c5-3 10-3 15 0" fill="none" stroke="#11180f" stroke-width="3.3" stroke-linecap="round"/>
    <path d="M55 61c6 4 14 4 20 0" fill="none" stroke="#3b211b" stroke-width="3.4" stroke-linecap="round"/>
    <path d="M40 66c17 8 34 8 50 0" fill="none" stroke="#9fb077" stroke-width="5" opacity=".5"/>
  </g>
</svg>
