<svg xmlns="http://www.w3.org/2000/svg" viewBox="0 0 128 128">
  <defs>
    <radialGradient id="skin" cx="43%" cy="35%" r="70%"><stop offset="0" stop-color="#ffd2a5"/><stop offset=".7" stop-color="#b26d48"/><stop offset="1" stop-color="#5c3327"/></radialGradient>
    <linearGradient id="cloth" x1="42" y1="46" x2="83" y2="114" gradientUnits="userSpaceOnUse"><stop offset="0" stop-color="#f3c56e"/><stop offset=".52" stop-color="#bd7d39"/><stop offset="1" stop-color="#493024"/></linearGradient>
    <filter id="soft" x="-20%" y="-20%" width="140%" height="140%"><feDropShadow dx="0" dy="3" stdDeviation="2" flood-color="#130d09" flood-opacity=".5"/></filter>
  </defs>
  <ellipse cx="64" cy="116" rx="28" ry="7" fill="#130d09" opacity=".3"/>
  <g filter="url(#soft)">
    <path d="M43 50c5-12 37-12 42 0 5 18 5 40 1 59-10 7-34 7-44 0-4-19-4-41 1-59z" fill="url(#cloth)"/>
    <path d="M53 53h22l3 53c-8 4-20 4-28 0z" fill="#e8d6aa"/>
    <path d="M39 62c-6 10-7 22-4 33 4 2 9 0 12-5l3-30zM88 62c6 10 8 22 5 33-5 2-10 0-13-5l-3-30z" fill="#7a4f2e"/>
    <path d="M50 92h12v25H48c-2-8-1-17 2-25zM66 92h12c3 8 4 17 2 25H66z" fill="#2c251e"/>
    <path d="M45 114c6 3 12 4 18 2l-2 6H42c0-3 1-6 3-8zM66 116c7 2 13 1 18-2 2 2 3 5 3 8H67z" fill="#100c09"/>
    <path d="M47 31c5-12 31-12 37 0 4 9 1 22-6 29-7 7-21 7-28 0-7-7-9-20-3-29z" fill="url(#skin)"/>
    <path d="M44 32c6-13 30-15 40-2-11-3-24-2-40 5z" fill="#5a3525"/>
    <path d="M54 44c3-2 6-2 9 0M70 44c3-2 6-2 9 0" fill="none" stroke="#201713" stroke-width="2.2" stroke-linecap="round"/>
    <path d="M58 55c5 3 10 3 15 0" fill="none" stroke="#7a3d2a" stroke-width="2.6" stroke-linecap="round"/>
  </g>
</svg>
